<?xml version="1.0" encoding="UTF-8" standalone="no"?>
<!-- Created with Inkscape (http://www.inkscape.org/) -->

<svg
   xmlns:dc="http://purl.org/dc/elements/1.1/"
   xmlns:cc="http://creativecommons.org/ns#"
   xmlns:rdf="http://www.w3.org/1999/02/22-rdf-syntax-ns#"
   xmlns:svg="http://www.w3.org/2000/svg"
   xmlns="http://www.w3.org/2000/svg"
   xmlns:sodipodi="http://sodipodi.sourceforge.net/DTD/sodipodi-0.dtd"
   xmlns:inkscape="http://www.inkscape.org/namespaces/inkscape"
   version="1.1"
   id="svg7073"
   xml:space="preserve"
   width="1000"
   height="985.84668"
   viewBox="0 0 1000 985.8467"
   sodipodi:docname="Adidas logo 1971.svg"
   inkscape:version="0.92.2 (5c3e80d, 2017-08-06)"><metadata
     id="metadata7079"><rdf:RDF><cc:Work
         rdf:about=""><dc:format>image/svg+xml</dc:format><dc:type
           rdf:resource="http://purl.org/dc/dcmitype/StillImage" /><dc:title></dc:title></cc:Work></rdf:RDF></metadata><defs
     id="defs7077"><clipPath
       clipPathUnits="userSpaceOnUse"
       id="clipPath7093"><path
         d="M 0,0 H 623.622 V 807.874 H 0 Z"
         id="path7091"
         inkscape:connector-curvature="0" /></clipPath><clipPath
       clipPathUnits="userSpaceOnUse"
       id="clipPath7105"><path
         d="M 0,0 H 217.323 V 395.527 H 0 Z"
         id="path7103"
         inkscape:connector-curvature="0" /></clipPath><clipPath
       clipPathUnits="userSpaceOnUse"
       id="clipPath7119"><path
         d="M 0,0 H 623.622 V 807.874 H 0 Z"
         id="path7117"
         inkscape:connector-curvature="0" /></clipPath><clipPath
       clipPathUnits="userSpaceOnUse"
       id="clipPath7127"><path
         d="M 623.622,-8.504 H 840.945 V 395.527 H 623.622 Z"
         id="path7125"
         inkscape:connector-curvature="0" /></clipPath><clipPath
       clipPathUnits="userSpaceOnUse"
       id="clipPath7135"><path
         d="m 622.495,-1.083 h 2.205 v 397.687 h -2.205 z"
         id="path7133"
         inkscape:connector-curvature="0" /></clipPath><clipPath
       clipPathUnits="userSpaceOnUse"
       id="clipPath7149"><path
         d="m 311.811,0 h 311.81 v 203.528 h -311.81 z"
         id="path7147"
         inkscape:connector-curvature="0" /></clipPath><clipPath
       clipPathUnits="userSpaceOnUse"
       id="clipPath7163"><path
         d="m 217.323,0 h 94.488 v 203.528 h -94.488 z"
         id="path7161"
         inkscape:connector-curvature="0" /></clipPath><clipPath
       clipPathUnits="userSpaceOnUse"
       id="clipPath7177"><path
         d="m 217.323,203.528 h 406.299 v 192 H 217.323 Z"
         id="path7175"
         inkscape:connector-curvature="0" /></clipPath><clipPath
       clipPathUnits="userSpaceOnUse"
       id="clipPath7191"><path
         d="M 0,0 H 623.622 V 807.874 H 0 Z"
         id="path7189"
         inkscape:connector-curvature="0" /></clipPath><clipPath
       clipPathUnits="userSpaceOnUse"
       id="clipPath7199"><path
         d="M 216.323,396.527 H 624.622 V 84.0391 H 216.323 Z"
         id="path7197"
         inkscape:connector-curvature="0" /></clipPath><clipPath
       clipPathUnits="userSpaceOnUse"
       id="clipPath7225"><path
         d="M 0,0 H 623.622 V 807.874 H 0 Z"
         id="path7223"
         inkscape:connector-curvature="0" /></clipPath><clipPath
       clipPathUnits="userSpaceOnUse"
       id="clipPath7257"><path
         d="M 0,0 H 623.622 V 807.874 H 0 Z"
         id="path7255"
         inkscape:connector-curvature="0" /></clipPath><clipPath
       clipPathUnits="userSpaceOnUse"
       id="clipPath7273"><path
         d="M 0,0 H 623.622 V 807.874 H 0 Z"
         id="path7271"
         inkscape:connector-curvature="0" /></clipPath><clipPath
       clipPathUnits="userSpaceOnUse"
       id="clipPath7289"><path
         d="M 0,0 H 623.622 V 807.874 H 0 Z"
         id="path7287"
         inkscape:connector-curvature="0" /></clipPath><clipPath
       clipPathUnits="userSpaceOnUse"
       id="clipPath7317"><path
         d="M 0,0 H 623.622 V 807.874 H 0 Z"
         id="path7315"
         inkscape:connector-curvature="0" /></clipPath><clipPath
       id="clipPath7093-0"
       clipPathUnits="userSpaceOnUse"><path
         inkscape:connector-curvature="0"
         id="path7091-6"
         d="M 0,0 H 623.622 V 807.874 H 0 Z" /></clipPath><clipPath
       id="clipPath7105-3"
       clipPathUnits="userSpaceOnUse"><path
         inkscape:connector-curvature="0"
         id="path7103-0"
         d="M 0,0 H 217.323 V 395.527 H 0 Z" /></clipPath><clipPath
       id="clipPath7119-5"
       clipPathUnits="userSpaceOnUse"><path
         inkscape:connector-curvature="0"
         id="path7117-6"
         d="M 0,0 H 623.622 V 807.874 H 0 Z" /></clipPath><clipPath
       id="clipPath7127-5"
       clipPathUnits="userSpaceOnUse"><path
         inkscape:connector-curvature="0"
         id="path7125-7"
         d="M 623.622,-8.504 H 840.945 V 395.527 H 623.622 Z" /></clipPath><clipPath
       id="clipPath7135-2"
       clipPathUnits="userSpaceOnUse"><path
         inkscape:connector-curvature="0"
         id="path7133-5"
         d="m 622.495,-1.083 h 2.205 v 397.687 h -2.205 z" /></clipPath><clipPath
       id="clipPath7149-0"
       clipPathUnits="userSpaceOnUse"><path
         inkscape:connector-curvature="0"
         id="path7147-6"
         d="m 311.811,0 h 311.81 v 203.528 h -311.81 z" /></clipPath><clipPath
       id="clipPath7163-7"
       clipPathUnits="userSpaceOnUse"><path
         inkscape:connector-curvature="0"
         id="path7161-8"
         d="m 217.323,0 h 94.488 v 203.528 h -94.488 z" /></clipPath><clipPath
       id="clipPath7177-8"
       clipPathUnits="userSpaceOnUse"><path
         inkscape:connector-curvature="0"
         id="path7175-2"
         d="m 217.323,203.528 h 406.299 v 192 H 217.323 Z" /></clipPath><clipPath
       id="clipPath7191-9"
       clipPathUnits="userSpaceOnUse"><path
         inkscape:connector-curvature="0"
         id="path7189-2"
         d="M 0,0 H 623.622 V 807.874 H 0 Z" /></clipPath><clipPath
       id="clipPath7199-9"
       clipPathUnits="userSpaceOnUse"><path
         inkscape:connector-curvature="0"
         id="path7197-3"
         d="M 216.323,396.527 H 624.622 V 84.0391 H 216.323 Z" /></clipPath><clipPath
       id="clipPath7225-0"
       clipPathUnits="userSpaceOnUse"><path
         inkscape:connector-curvature="0"
         id="path7223-2"
         d="M 0,0 H 623.622 V 807.874 H 0 Z" /></clipPath><clipPath
       id="clipPath7257-4"
       clipPathUnits="userSpaceOnUse"><path
         inkscape:connector-curvature="0"
         id="path7255-2"
         d="M 0,0 H 623.622 V 807.874 H 0 Z" /></clipPath><clipPath
       id="clipPath7273-1"
       clipPathUnits="userSpaceOnUse"><path
         inkscape:connector-curvature="0"
         id="path7271-6"
         d="M 0,0 H 623.622 V 807.874 H 0 Z" /></clipPath><clipPath
       id="clipPath7289-5"
       clipPathUnits="userSpaceOnUse"><path
         inkscape:connector-curvature="0"
         id="path7287-8"
         d="M 0,0 H 623.622 V 807.874 H 0 Z" /></clipPath><clipPath
       id="clipPath7317-3"
       clipPathUnits="userSpaceOnUse"><path
         inkscape:connector-curvature="0"
         id="path7315-9"
         d="M 0,0 H 623.622 V 807.874 H 0 Z" /></clipPath></defs><sodipodi:namedview
     pagecolor="#ffffff"
     bordercolor="#666666"
     borderopacity="1"
     objecttolerance="10"
     gridtolerance="10"
     guidetolerance="10"
     inkscape:pageopacity="0"
     inkscape:pageshadow="2"
     inkscape:window-width="1366"
     inkscape:window-height="705"
     id="namedview7075"
     showgrid="false"
     inkscape:snap-smooth-nodes="true"
     showguides="true"
     inkscape:guide-bbox="true"
     inkscape:object-paths="false"
     inkscape:zoom="0.24880119"
     inkscape:cx="475.65017"
     inkscape:cy="486.15406"
     inkscape:window-x="-8"
     inkscape:window-y="-8"
     inkscape:window-maximized="1"
     inkscape:current-layer="layer1"
     fit-margin-top="0"
     fit-margin-left="0"
     fit-margin-right="0"
     fit-margin-bottom="0" /><g
     id="g7081"
     inkscape:groupmode="layer"
     inkscape:label="2015_magazin_en"
     transform="matrix(1.3333333,0,0,-1.3333333,176.93572,1052.8934)"><g
       id="g7219"
       transform="matrix(11.468434,0,0,11.468434,-849.2727,-7668.4139)"
       style="stroke-width:0.08719587"><g
         style="stroke-width:0.08719587"
         transform="translate(111.56787,701.2856)"
         id="g7227" /><g
         id="g1842"
         transform="matrix(9.1494875,0,0,9.1494875,-811.04207,-5671.0613)"
         style="stroke-width:0.00953014"><path
           style="opacity:1;fill:#000000;fill-opacity:1;stroke:none;stroke-width:0.00986032;stroke-linecap:square;stroke-linejoin:miter;stroke-miterlimit:4;stroke-dasharray:none;stroke-opacity:1"
           d="m 99.046267,700.42953 c -0.606855,-0.69657 -0.941581,-1.58896 -0.942527,-2.5128 0.0022,-0.17064 0.01575,-0.34093 0.04064,-0.50975 h 1.802865 c 0.02519,0.1688 0.03907,0.33909 0.04155,0.50975 -0.0011,0.92384 -0.335671,1.81623 -0.942528,2.5128 z m -3.573751,-1.40476 c -0.0029,-0.56125 0.125843,-1.11536 0.376,-1.61779 h 2.121443 c -0.08892,0.14224 -0.187704,0.27807 -0.29563,0.40649 -0.563894,0.65603 -1.345839,1.0862 -2.201813,1.2113 z m 7.147504,0 c -0.85596,-0.1251 -1.6379,-0.55528 -2.20178,-1.2113 -0.10767,-0.12844 -0.20621,-0.26427 -0.29489,-0.40649 h 2.1201 c 0.25035,0.50238 0.37933,1.0565 0.37657,1.61779 z m -6.621549,-1.88919 c 0.05668,-0.0932 0.117577,-0.18376 0.182507,-0.2714 h 5.731522 c 0.0647,0.0876 0.1254,0.17821 0.18187,0.2714 z m 0.40407,-0.54281 c 0.08688,-0.0954 0.178839,-0.18597 0.275479,-0.27143 h 4.73845 c 0.0968,0.0854 0.18892,0.17605 0.27595,0.27143 z m 0.62287,-0.54283 c 0.451371,-0.31192 0.96827,-0.51615 1.510941,-0.59699 -6.07e-4,0.20009 -0.01796,0.39978 -0.05186,0.59699 z m 1.569878,0 c 0.127727,-0.23027 0.278852,-0.44676 0.450978,-0.64602 0.172067,0.19927 0.323135,0.41576 0.450808,0.64602 z m 1.011338,0 c -0.03342,-0.19725 -0.05028,-0.39694 -0.05041,-0.59699 0.542633,0.0809 1.059493,0.28508 1.510833,0.59699 z"
           id="path7582"
           inkscape:connector-curvature="0"
           sodipodi:nodetypes="cccccccccccccccccccccccccccccccccccccc" /><path
           inkscape:connector-curvature="0"
           id="path1785"
           d="m 97.862022,695.03151 v -0.50927 c -0.101853,0.0711 -0.224932,0.11126 -0.35752,0.11126 -0.345801,0 -0.625276,-0.27933 -0.625276,-0.62513 0,-0.34816 0.279475,-0.62528 0.625276,-0.62528 0.132588,0 0.255667,0.0402 0.35752,0.11126 v -0.0851 h 0.300841 v 1.62231 z m 0.447702,0 v -0.30084 h 0.300702 v 0.30084 z m 1.406766,0 v -0.50927 c -0.101853,0.0711 -0.225071,0.11126 -0.357659,0.11126 -0.345801,0 -0.625137,-0.27933 -0.625137,-0.62513 0,-0.34816 0.279336,-0.62528 0.625137,-0.62528 0.132588,0 0.255806,0.0402 0.357659,0.11126 v -0.0851 h 0.3007 v 1.62231 z m -3.618753,-0.39801 c -0.345801,0 -0.625276,-0.27933 -0.625276,-0.62513 0,-0.34816 0.279475,-0.62528 0.625276,-0.62528 0.132588,0 0.255666,0.0402 0.357519,0.11126 v -0.0851 h 0.300842 v 1.2102 h -0.300842 v -0.0972 c -0.101853,0.0711 -0.224931,0.11126 -0.357519,0.11126 z m 4.667863,0 c -0.3458,0 -0.62514,-0.27933 -0.62514,-0.62513 0,-0.34816 0.27934,-0.62528 0.62514,-0.62528 0.13258,0 0.2558,0.0402 0.35766,0.11126 v -0.0851 h 0.3007 v 1.2102 h -0.3007 v -0.0972 c -0.10186,0.0711 -0.22508,0.11126 -0.35766,0.11126 z m 1.29787,0 c -0.31499,0 -0.50214,-0.17286 -0.50214,-0.39786 0,-0.27476 0.22277,-0.31962 0.41461,-0.35515 l 0.15859,-0.0285 c 0.11365,-0.0213 0.16347,-0.0544 0.16347,-0.12075 0,-0.0592 -0.0569,-0.11838 -0.19195,-0.11838 -0.19656,0 -0.26051,0.10173 -0.26287,0.18943 h -0.30782 c 0.009,-0.24394 0.21792,-0.41685 0.56608,-0.41685 0.28419,0 0.51862,0.12317 0.51862,0.3955 0,0.18948 -0.1066,0.30077 -0.35291,0.34816 l -0.19181,0.0378 c -0.12315,0.0237 -0.20843,0.0475 -0.20843,0.1209 0,0.0805 0.0829,0.11601 0.18707,0.11601 0.1516,0 0.2132,-0.0759 0.21792,-0.16585 h 0.30321 c -0.0166,0.23687 -0.20615,0.39549 -0.51164,0.39549 z m -3.753746,-0.0141 v -1.2102 h 0.300702 v 1.2102 z m -2.197888,-0.26524 c 0.191913,0 0.345793,-0.15395 0.345793,-0.34579 0,-0.19184 -0.15388,-0.3458 -0.345793,-0.3458 -0.191842,0 -0.345654,0.15396 -0.345654,0.3458 0,0.19184 0.153812,0.34579 0.345654,0.34579 z m 1.406905,0 c 0.191771,0 0.345654,-0.15395 0.345654,-0.34579 0,-0.19184 -0.153883,-0.3458 -0.345654,-0.3458 -0.191913,0 -0.345793,0.15396 -0.345793,0.3458 0,0.19184 0.15388,0.34579 0.345793,0.34579 z m 1.854329,0 c 0.191842,0 0.345793,-0.15395 0.345794,-0.34579 0,-0.19184 -0.153952,-0.3458 -0.345794,-0.3458 -0.191842,0 -0.345793,0.15396 -0.345793,0.3458 0,0.19184 0.153951,0.34579 0.345793,0.34579 z m 1.40677,0 c 0.19177,0 0.34579,-0.15395 0.34579,-0.34579 0,-0.19184 -0.15402,-0.3458 -0.34579,-0.3458 -0.19185,0 -0.3458,0.15396 -0.3458,0.3458 0,0.19184 0.15395,0.34579 0.3458,0.34579 z"
           style="clip-rule:evenodd;fill-rule:nonzero;stroke-width:0.00062324;stroke-linejoin:round;stroke-miterlimit:1.41420996" /></g><g
         transform="matrix(0.06625531,0,0,-0.06625531,49.081765,731.20084)"
         id="layer1"
         inkscape:label="Ebene 1"
         style="fill:#ffffff;stroke-width:0.08606616" /></g></g></svg>